<svg width="18" height="18" viewBox="0 0 18 18" fill="none" xmlns="http://www.w3.org/2000/svg">
<g clip-path="url(#clip0)">
<path d="M13.125 1.43774C12.2804 1.45088 11.4543 1.68663 10.73 2.1212C10.0058 2.55576 9.40899 3.17375 8.99997 3.91274C8.59095 3.17375 7.99417 2.55576 7.2699 2.1212C6.54562 1.68663 5.71951 1.45088 4.87497 1.43774C3.52867 1.49624 2.26025 2.08518 1.34681 3.07592C0.433363 4.06665 -0.0508442 5.37864 -3.1282e-05 6.72524C-3.1282e-05 10.1355 3.58947 13.86 6.59997 16.3852C7.27213 16.9501 8.12198 17.2598 8.99997 17.2598C9.87795 17.2598 10.7278 16.9501 11.4 16.3852C14.4105 13.86 18 10.1355 18 6.72524C18.0508 5.37864 17.5666 4.06665 16.6531 3.07592C15.7397 2.08518 14.4713 1.49624 13.125 1.43774ZM10.4362 15.2377C10.0342 15.5763 9.52553 15.7619 8.99997 15.7619C8.4744 15.7619 7.96573 15.5763 7.56372 15.2377C3.71022 12.0045 1.49997 8.90249 1.49997 6.72524C1.4487 5.77628 1.77474 4.84554 2.40699 4.13602C3.03924 3.4265 3.92639 2.99576 4.87497 2.93774C5.82354 2.99576 6.7107 3.4265 7.34295 4.13602C7.97519 4.84554 8.30124 5.77628 8.24997 6.72524C8.24997 6.92416 8.32899 7.11492 8.46964 7.25557C8.61029 7.39623 8.80106 7.47524 8.99997 7.47524C9.19888 7.47524 9.38965 7.39623 9.5303 7.25557C9.67095 7.11492 9.74997 6.92416 9.74997 6.72524C9.6987 5.77628 10.0247 4.84554 10.657 4.13602C11.2892 3.4265 12.1764 2.99576 13.125 2.93774C14.0735 2.99576 14.9607 3.4265 15.5929 4.13602C16.2252 4.84554 16.5512 5.77628 16.5 6.72524C16.5 8.90249 14.2897 12.0045 10.4362 15.2347V15.2377Z" fill="#818692"/>
</g>
<defs>
<clipPath id="clip0">
<rect width="18" height="18" fill="white"/>
</clipPath>
</defs>
</svg>
