<svg width="18" height="18" viewBox="0 0 18 18" fill="none" xmlns="http://www.w3.org/2000/svg">
<g clip-path="url(#clip0)">
<path d="M9 9C9.89002 9 10.76 8.73608 11.5001 8.24162C12.2401 7.74715 12.8169 7.04434 13.1575 6.22208C13.4981 5.39981 13.5872 4.49501 13.4135 3.6221C13.2399 2.74918 12.8113 1.94736 12.182 1.31802C11.5526 0.688685 10.7508 0.260102 9.87791 0.0864683C9.00499 -0.0871652 8.10019 0.00194979 7.27792 0.342544C6.45566 0.683138 5.75285 1.25991 5.25839 1.99994C4.76392 2.73996 4.5 3.60999 4.5 4.5C4.50119 5.69311 4.97568 6.83701 5.81934 7.68067C6.66299 8.52432 7.80689 8.99881 9 9ZM9 1.5C9.59334 1.5 10.1734 1.67595 10.6667 2.00559C11.1601 2.33524 11.5446 2.80377 11.7716 3.35195C11.9987 3.90013 12.0581 4.50333 11.9424 5.08527C11.8266 5.66722 11.5409 6.20177 11.1213 6.62132C10.7018 7.04088 10.1672 7.3266 9.58527 7.44236C9.00333 7.55811 8.40013 7.4987 7.85195 7.27164C7.30377 7.04458 6.83524 6.66006 6.50559 6.16671C6.17595 5.67337 6 5.09335 6 4.5C6 3.70435 6.31607 2.94129 6.87868 2.37868C7.44129 1.81607 8.20435 1.5 9 1.5Z" fill="#818692"/>
<path d="M9 10.5C7.2104 10.502 5.49466 11.2138 4.22922 12.4792C2.96378 13.7447 2.25199 15.4604 2.25 17.25C2.25 17.4489 2.32902 17.6397 2.46967 17.7803C2.61032 17.921 2.80109 18 3 18C3.19891 18 3.38968 17.921 3.53033 17.7803C3.67098 17.6397 3.75 17.4489 3.75 17.25C3.75 15.8576 4.30312 14.5223 5.28769 13.5377C6.27226 12.5531 7.60761 12 9 12C10.3924 12 11.7277 12.5531 12.7123 13.5377C13.6969 14.5223 14.25 15.8576 14.25 17.25C14.25 17.4489 14.329 17.6397 14.4697 17.7803C14.6103 17.921 14.8011 18 15 18C15.1989 18 15.3897 17.921 15.5303 17.7803C15.671 17.6397 15.75 17.4489 15.75 17.25C15.748 15.4604 15.0362 13.7447 13.7708 12.4792C12.5053 11.2138 10.7896 10.502 9 10.5Z" fill="#818692"/>
</g>
<defs>
<clipPath id="clip0">
<rect width="18" height="18" fill="white"/>
</clipPath>
</defs>
</svg>
